<svg xmlns="http://www.w3.org/2000/svg" xmlns:xlink="http://www.w3.org/1999/xlink" preserveAspectRatio="xMidYMid" width="78.937" height="138.72" viewBox="0 0 78.937 138.72">
  <defs>
    <style>
      .cls-1 {
        fill: #e84d37;
        fill-rule: evenodd;
      }
    </style>
  </defs>
  <path d="M78.928,56.656 C78.928,65.807 71.483,73.252 62.332,73.252 C57.979,73.252 53.895,71.586 50.821,68.615 C50.599,68.690 50.377,68.763 50.153,68.834 C48.900,71.245 47.076,73.309 44.813,74.864 C42.043,76.767 38.797,77.772 35.426,77.772 C30.010,77.772 25.011,75.111 21.942,70.849 C19.652,72.404 16.932,73.252 14.063,73.252 C6.311,73.252 0.004,66.945 0.004,59.193 C0.004,54.357 2.489,49.938 6.429,47.387 C4.998,43.507 4.275,39.431 4.275,35.230 C4.275,25.816 7.940,16.966 14.596,10.310 C21.253,3.654 30.103,-0.012 39.516,-0.012 C48.929,-0.012 57.779,3.654 64.435,10.310 C71.092,16.966 74.757,25.816 74.757,35.230 C74.757,38.354 74.351,41.437 73.546,44.421 C76.950,47.543 78.928,51.968 78.928,56.656 ZM68.144,48.140 C66.981,47.345 66.490,45.872 66.943,44.537 C67.956,41.548 68.470,38.417 68.470,35.230 C68.470,27.496 65.458,20.224 59.990,14.756 C54.521,9.287 47.250,6.275 39.516,6.275 C31.782,6.275 24.511,9.287 19.042,14.756 C13.573,20.224 10.562,27.496 10.562,35.230 C10.562,39.536 11.485,43.680 13.307,47.549 C13.686,48.354 13.706,49.283 13.362,50.104 C13.017,50.925 12.340,51.562 11.500,51.856 C8.385,52.944 6.291,55.893 6.291,59.193 C6.291,63.478 9.778,66.965 14.063,66.965 C16.522,66.965 18.783,65.837 20.269,63.871 C20.868,63.078 21.801,62.622 22.777,62.622 C22.932,62.622 23.089,62.634 23.245,62.657 C24.384,62.829 25.339,63.610 25.732,64.693 C27.207,68.756 31.102,71.485 35.426,71.485 C39.650,71.485 43.402,68.955 44.987,65.040 C45.356,64.127 46.131,63.440 47.081,63.184 C48.249,62.868 49.407,62.476 50.523,62.017 C51.828,61.480 53.330,61.878 54.198,62.990 C56.169,65.516 59.133,66.965 62.332,66.965 C68.016,66.965 72.641,62.340 72.641,56.656 C72.641,53.251 70.960,50.067 68.144,48.140 ZM23.413,75.354 L23.454,75.395 L23.458,75.392 C24.216,76.030 25.022,76.604 25.867,77.112 L25.519,77.460 L28.796,80.737 L30.445,79.089 C31.583,79.408 32.754,79.621 33.945,79.718 L30.861,82.803 L34.139,86.080 L37.416,82.803 L34.360,79.746 C34.719,79.767 35.079,79.779 35.441,79.779 C36.406,79.779 37.362,79.704 38.303,79.559 L39.481,80.737 L41.426,78.792 C43.024,78.250 44.549,77.490 45.963,76.518 C47.954,75.151 49.665,73.402 50.987,71.396 C51.526,71.813 52.085,72.198 52.662,72.550 L55.507,75.395 L56.558,74.345 C58.403,74.945 60.352,75.258 62.346,75.258 C62.585,75.258 62.823,75.252 63.060,75.243 L41.693,136.120 C41.084,137.854 40.283,138.720 39.481,138.720 C38.679,138.720 37.877,137.854 37.269,136.120 L15.872,75.159 C17.841,74.942 19.738,74.370 21.481,73.465 C22.081,74.145 22.728,74.774 23.413,75.354 ZM30.861,93.486 L34.139,96.764 L37.416,93.486 L34.139,90.209 L30.861,93.486 ZM42.758,98.829 L39.481,95.551 L36.203,98.829 L39.481,102.106 L42.758,98.829 ZM36.203,109.513 L39.481,112.791 L42.758,109.513 L39.481,106.236 L36.203,109.513 ZM44.823,96.764 L48.100,93.486 L44.823,90.209 L41.546,93.486 L44.823,96.764 ZM39.481,84.867 L36.203,88.144 L39.481,91.422 L42.758,88.144 L39.481,84.867 ZM44.823,79.525 L41.546,82.803 L44.823,86.080 L48.100,82.803 L44.823,79.525 ZM50.165,74.183 L46.888,77.460 L50.165,80.737 L53.443,77.460 L50.165,74.183 ZM55.833,79.851 L55.507,79.525 L52.230,82.803 L54.130,84.702 L55.833,79.851 ZM53.057,87.759 L50.165,84.867 L46.888,88.144 L50.165,91.422 L52.641,88.947 L53.057,87.759 ZM50.282,95.668 L50.165,95.551 L46.888,98.829 L48.579,100.520 L50.282,95.668 ZM46.862,105.409 L47.506,103.576 L44.823,100.894 L41.546,104.171 L44.823,107.449 L46.862,105.409 ZM44.629,111.772 L41.546,114.855 L43.027,116.337 L44.629,111.772 ZM39.481,126.439 L41.954,119.393 L39.481,116.920 L37.008,119.393 L39.481,126.439 ZM35.935,116.337 L37.416,114.855 L34.333,111.772 L35.935,116.337 ZM32.100,105.409 L34.139,107.449 L37.416,104.171 L34.139,100.894 L31.456,103.576 L32.100,105.409 ZM30.383,100.520 L32.074,98.829 L28.796,95.551 L28.680,95.667 L30.383,100.520 ZM26.321,88.947 L28.796,91.422 L32.074,88.144 L28.796,84.867 L25.904,87.759 L26.321,88.947 ZM24.831,84.702 L26.732,82.803 L23.454,79.525 L23.128,79.850 L24.831,84.702 Z" class="cls-1"/>
</svg>
