<svg xmlns="http://www.w3.org/2000/svg" xmlns:xlink="http://www.w3.org/1999/xlink" preserveAspectRatio="xMidYMid" width="26.219" height="31.87" viewBox="0 0 26.219 31.87">
  <defs>
    <style>
      .cls-1 {
        fill: #fff;
        fill-rule: evenodd;
      }
    </style>
  </defs>
  <path d="M-0.012,14.505 L3.670,14.505 L3.670,0.005 L12.559,0.005 C16.468,0.005 18.585,0.187 19.812,0.505 C23.449,1.460 26.221,4.732 26.221,9.823 C26.221,15.641 22.494,18.686 19.130,19.413 C17.585,19.731 15.786,19.868 12.877,19.868 L9.838,19.868 L9.838,22.595 L24.858,22.595 L24.858,27.959 L9.838,27.959 L9.838,31.868 L3.670,31.868 L3.670,27.959 L-0.012,27.959 L-0.012,22.595 L3.670,22.595 L3.670,19.868 L-0.012,19.868 L-0.012,14.505 ZM9.838,5.414 L9.838,14.459 L12.196,14.459 C14.741,14.459 15.994,14.277 16.858,13.959 C18.494,13.368 19.585,11.777 19.585,9.914 C19.585,7.596 18.040,6.005 15.994,5.641 C15.221,5.505 14.105,5.414 11.786,5.414 L9.838,5.414 Z" class="cls-1"/>
</svg>
